<svg width="51" height="52" viewBox="0 0 51 52" fill="none" xmlns="http://www.w3.org/2000/svg">
            <path
              fill-rule="evenodd"
              clip-rule="evenodd"
              d="M12.75 25.9999C12.75 25.5689 12.9179 25.1556 13.2168 24.8509C13.5157 24.5461 13.9211 24.3749 14.3437 24.3749L32.8089 24.3749L25.9654 17.4004C25.8172 17.2493 25.6997 17.0699 25.6195 16.8725C25.5393 16.6751 25.498 16.4636 25.498 16.2499C25.498 16.0362 25.5393 15.8247 25.6195 15.6273C25.6997 15.4298 25.8172 15.2505 25.9654 15.0994C26.1136 14.9483 26.2895 14.8285 26.4831 14.7467C26.6767 14.6649 26.8842 14.6228 27.0937 14.6228C27.3033 14.6228 27.5108 14.6649 27.7044 14.7467C27.898 14.8285 28.0739 14.9483 28.2221 15.0994L37.7846 24.8494C37.933 25.0003 38.0508 25.1797 38.1311 25.3771C38.2115 25.5745 38.2528 25.7862 38.2528 25.9999C38.2528 26.2136 38.2115 26.4253 38.1311 26.6227C38.0508 26.8201 37.933 26.9995 37.7846 27.1504L28.2221 36.9004C28.0739 37.0515 27.898 37.1713 27.7044 37.2531C27.5108 37.3349 27.3033 37.377 27.0938 37.377C26.8842 37.377 26.6767 37.3349 26.4831 37.2531C26.2895 37.1713 26.1136 37.0515 25.9654 36.9004C25.6661 36.5953 25.498 36.1814 25.498 35.7499C25.498 35.5362 25.5393 35.3247 25.6195 35.1273C25.6997 34.9298 25.8172 34.7505 25.9654 34.5994L32.8089 27.6249L14.3437 27.6249C13.9211 27.6249 13.5157 27.4537 13.2168 27.1489C12.9179 26.8442 12.75 26.4309 12.75 25.9999Z"
              fill="#808080"
            />
          </svg>