 <svg width="51" height="52" viewBox="0 0 51 52" fill="none" xmlns="http://www.w3.org/2000/svg">
            <path
              fill-rule="evenodd"
              clip-rule="evenodd"
              d="M38.25 26.0001C38.25 26.4311 38.0821 26.8444 37.7832 27.1491C37.4843 27.4539 37.0789 27.6251 36.6562 27.6251L18.1911 27.6251L25.0346 34.5996C25.1828 34.7507 25.3003 34.93 25.3805 35.1275C25.4607 35.3249 25.502 35.5364 25.502 35.7501C25.502 35.9638 25.4607 36.1753 25.3805 36.3727C25.3003 36.5701 25.1828 36.7495 25.0346 36.9006C24.8864 37.0517 24.7105 37.1715 24.5169 37.2533C24.3233 37.3351 24.1158 37.3772 23.9062 37.3772C23.6967 37.3772 23.4892 37.3351 23.2956 37.2533C23.102 37.1715 22.9261 37.0517 22.7779 36.9006L13.2154 27.1506C13.067 26.9997 12.9492 26.8203 12.8689 26.6229C12.7885 26.4255 12.7471 26.2138 12.7471 26.0001C12.7471 25.7864 12.7885 25.5747 12.8689 25.3773C12.9492 25.1799 13.067 25.0005 13.2154 24.8496L22.7779 15.0996C22.9261 14.9485 23.102 14.8287 23.2956 14.7469C23.4892 14.6651 23.6967 14.623 23.9062 14.623C24.1158 14.623 24.3233 14.6651 24.5169 14.7469C24.7105 14.8287 24.8864 14.9485 25.0346 15.0996C25.3339 15.4047 25.502 15.8186 25.502 16.2501C25.502 16.4638 25.4607 16.6753 25.3805 16.8727C25.3003 17.0701 25.1828 17.2495 25.0346 17.4006L18.1911 24.3751L36.6562 24.3751C37.0789 24.3751 37.4843 24.5463 37.7832 24.8511C38.0821 25.1558 38.25 25.5691 38.25 26.0001Z"
              fill="#808080"
            />
          </svg>