<svg width="599" height="599" viewBox="0 0 599 599" fill="none" xmlns="http://www.w3.org/2000/svg">
<path d="M537.858 480.868L534.891 478.6C574.362 426.775 595.231 364.865 595.231 299.535C595.231 198.329 544.314 105.219 459.022 50.4635L461.046 47.3225C547.42 102.742 598.965 197.038 598.965 299.535C598.965 365.668 577.817 428.381 537.858 480.868Z" fill="white" fill-opacity="0.22"/>
<path d="M299.5 599C134.36 599 0 464.64 0 299.5C0 134.36 134.36 0 299.5 0V3.73413C136.419 3.73413 3.76906 136.419 3.76906 299.465C3.76906 462.546 136.454 595.196 299.5 595.196C348.777 595.196 397.565 582.842 440.56 559.46L442.34 562.74C398.787 586.506 349.37 599 299.5 599Z" fill="white" fill-opacity="0.22"/>
<path d="M157.777 489.041C77.0911 439.345 28.931 353.145 28.931 258.5H36.4342C36.4342 350.528 83.2682 434.32 161.72 482.654L157.777 489.041Z" fill="white" fill-opacity="0.22"/>
<path d="M299.5 570.104C269.836 570.104 240.696 565.323 212.847 555.935L215.255 548.851C242.336 557.994 270.674 562.636 299.535 562.636C435.046 562.636 547.594 461.116 561.24 326.477L568.708 327.245C554.609 465.653 438.885 570.104 299.5 570.104Z" fill="white" fill-opacity="0.22"/>
<path d="M559.216 257.482C549.409 196.445 518.07 140.502 470.922 99.9848C423.285 59.0138 362.387 36.4693 299.5 36.4693C248.722 36.4693 199.446 50.9522 156.974 78.3826C107.488 110.35 69.7274 158.51 50.6378 213.999L43.5534 211.556C63.1664 154.496 102.009 104.975 152.891 72.1007C196.584 43.9027 247.257 29.001 299.465 29.001C364.167 29.001 426.775 52.2085 475.773 94.3312C524.247 136 556.493 193.548 566.579 256.331L559.216 257.482Z" fill="white" fill-opacity="0.22"/>
<path d="M299.5 494.932C191.733 494.932 104.068 407.267 104.068 299.5C104.068 255.877 118.132 214.626 144.69 180.216L150.623 184.788C125.077 217.907 111.571 257.552 111.571 299.5C111.571 403.114 195.886 487.429 299.5 487.429C317.892 487.429 336.074 484.777 353.488 479.542L355.652 486.731C337.505 492.21 318.59 494.932 299.5 494.932Z" fill="white" fill-opacity="0.22"/>
<path d="M431.486 443.631L426.426 438.117C465.199 402.59 487.429 352.092 487.429 299.535C487.429 262.542 476.68 226.736 456.369 195.99L462.616 191.872C483.765 223.839 494.932 261.076 494.932 299.569C494.897 354.186 471.794 406.708 431.486 443.631Z" fill="white" fill-opacity="0.22"/>
<path d="M416.41 152.368C382.873 125.67 342.425 111.571 299.5 111.571C261.844 111.571 225.515 122.669 194.42 143.678L190.232 137.466C222.549 115.62 260.344 104.103 299.5 104.103C344.17 104.103 386.223 118.76 421.087 146.54L416.41 152.368Z" fill="white" fill-opacity="0.22"/>
<path d="M299.5 461.359C273.187 461.359 247.048 454.903 223.945 442.688L225.69 439.373C248.269 451.309 273.78 457.625 299.465 457.625C370.414 457.625 433.092 409.919 451.903 341.587L455.497 342.599C436.303 412.536 372.124 461.359 299.5 461.359Z" fill="white" fill-opacity="0.22"/>
<path d="M185.067 414.002C154.496 383.431 137.64 342.774 137.64 299.535C137.64 210.299 210.229 137.675 299.5 137.675C388.736 137.675 461.36 210.299 461.36 299.535H457.625C457.625 212.358 386.711 141.444 299.535 141.444C212.358 141.444 141.444 212.358 141.444 299.535C141.444 341.762 157.881 381.477 187.789 411.35L185.067 414.002Z" fill="white" fill-opacity="0.22"/>
<path d="M299.5 400.183C243.976 400.183 198.817 355.024 198.817 299.5C198.817 243.976 243.976 198.818 299.5 198.818V206.321C248.129 206.321 206.321 248.129 206.321 299.5C206.321 350.871 248.129 392.68 299.5 392.68C350.871 392.68 392.679 350.871 392.679 299.5H400.182C400.148 355.024 354.989 400.183 299.5 400.183Z" fill="white" fill-opacity="0.22"/>
<path d="M299.5 349.545C271.895 349.545 249.455 327.105 249.455 299.5H253.189C253.189 325.011 273.954 345.776 299.465 345.776C324.976 345.776 345.741 325.011 345.741 299.5C345.741 273.989 324.976 253.224 299.465 253.224C285.296 253.224 272.105 259.576 263.24 270.674L260.309 268.335C269.871 256.33 284.145 249.455 299.465 249.455C327.07 249.455 349.51 271.895 349.51 299.5C349.51 327.105 327.07 349.545 299.5 349.545Z" fill="white" fill-opacity="0.22"/>
</svg>
