<svg width="51" height="52" fill="none" xmlns="http://www.w3.org/2000/svg"><path fill-rule="evenodd" clip-rule="evenodd" d="M12.75 26c0-.431.168-.844.467-1.15a1.578 1.578 0 011.127-.475h18.465L25.965 17.4a1.63 1.63 0 01-.467-1.15 1.654 1.654 0 01.467-1.15 1.595 1.595 0 011.129-.477 1.569 1.569 0 011.128.476l9.563 9.75a1.627 1.627 0 01.468 1.15 1.652 1.652 0 01-.468 1.151l-9.563 9.75a1.595 1.595 0 01-1.128.477 1.569 1.569 0 01-1.129-.477 1.643 1.643 0 01-.346-1.773c.08-.197.198-.377.346-.528l6.844-6.974H14.344c-.423 0-.828-.171-1.127-.476a1.641 1.641 0 01-.467-1.15z" fill="gray"/></svg>