<svg width="29" height="29" viewBox="0 0 29 29" fill="none" xmlns="http://www.w3.org/2000/svg">
<g clip-path="url(#clip0_16_70)">
<g filter="url(#filter0_d_16_70)">
<path d="M25.3109 10.0352C25.2987 9.12005 25.1274 8.21399 24.8046 7.35755C24.5247 6.63515 24.0972 5.97908 23.5494 5.43126C23.0016 4.88344 22.3455 4.45592 21.6231 4.17601C20.7777 3.85865 19.8845 3.68705 18.9817 3.66851C17.8193 3.61655 17.4507 3.60205 14.5 3.60205C11.5492 3.60205 11.171 3.60205 10.017 3.66851C9.11461 3.68718 8.22188 3.85878 7.37684 4.17601C6.65432 4.45573 5.99816 4.88318 5.45031 5.43102C4.90247 5.97887 4.47501 6.63504 4.1953 7.35755C3.8773 8.20234 3.70607 9.09527 3.689 9.99776C3.63705 11.1614 3.62134 11.5299 3.62134 14.4807C3.62134 17.4314 3.62134 17.8084 3.689 18.9636C3.70713 19.8674 3.8775 20.7592 4.1953 21.6062C4.47548 22.3285 4.90325 22.9844 5.45128 23.532C5.99931 24.0796 6.65554 24.5069 7.37805 24.7866C8.22078 25.1167 9.11366 25.3006 10.0183 25.3303C11.1819 25.3823 11.5504 25.398 14.5012 25.398C17.4519 25.398 17.8301 25.398 18.9841 25.3303C19.8869 25.3125 20.7801 25.1413 21.6255 24.824C22.3477 24.5438 23.0036 24.1161 23.5514 23.5684C24.0992 23.0206 24.5268 22.3647 24.807 21.6425C25.1248 20.7966 25.2952 19.9049 25.3133 18.9998C25.3653 17.8374 25.381 17.4689 25.381 14.5169C25.3786 11.5662 25.3786 11.1916 25.3109 10.0352ZM14.4927 20.0608C11.4066 20.0608 8.90659 17.5607 8.90659 14.4746C8.90659 11.3886 11.4066 8.88851 14.4927 8.88851C15.9742 8.88851 17.3951 9.47705 18.4427 10.5246C19.4903 11.5722 20.0788 12.9931 20.0788 14.4746C20.0788 15.9562 19.4903 17.377 18.4427 18.4246C17.3951 19.4722 15.9742 20.0608 14.4927 20.0608ZM20.3012 9.98447C19.5798 9.98447 18.9986 9.40205 18.9986 8.68188C18.9986 8.51091 19.0323 8.3416 19.0977 8.18364C19.1631 8.02568 19.259 7.88215 19.3799 7.76125C19.5008 7.64035 19.6444 7.54444 19.8023 7.47901C19.9603 7.41358 20.1296 7.37991 20.3006 7.37991C20.4715 7.37991 20.6409 7.41358 20.7988 7.47901C20.9568 7.54444 21.1003 7.64035 21.2212 7.76125C21.3421 7.88215 21.438 8.02568 21.5034 8.18364C21.5689 8.3416 21.6025 8.51091 21.6025 8.68188C21.6025 9.40205 21.0201 9.98447 20.3012 9.98447Z" fill="#FF0C0C" fill-opacity="0.78"/>
</g>
<g filter="url(#filter1_d_16_70)">
<path d="M14.4926 18.1032C16.4967 18.1032 18.1213 16.4786 18.1213 14.4746C18.1213 12.4705 16.4967 10.8459 14.4926 10.8459C12.4886 10.8459 10.864 12.4705 10.864 14.4746C10.864 16.4786 12.4886 18.1032 14.4926 18.1032Z" fill="#FF0C0C" fill-opacity="0.78"/>
</g>
</g>
<defs>
<filter id="filter0_d_16_70" x="-4.37866" y="-4.39795" width="37.7598" height="37.7959" filterUnits="userSpaceOnUse" color-interpolation-filters="sRGB">
<feFlood flood-opacity="0" result="BackgroundImageFix"/>
<feColorMatrix in="SourceAlpha" type="matrix" values="0 0 0 0 0 0 0 0 0 0 0 0 0 0 0 0 0 0 127 0" result="hardAlpha"/>
<feOffset/>
<feGaussianBlur stdDeviation="4"/>
<feColorMatrix type="matrix" values="0 0 0 0 1 0 0 0 0 0.0458333 0 0 0 0 0.0458333 0 0 0 0.54 0"/>
<feBlend mode="normal" in2="BackgroundImageFix" result="effect1_dropShadow_16_70"/>
<feBlend mode="normal" in="SourceGraphic" in2="effect1_dropShadow_16_70" result="shape"/>
</filter>
<filter id="filter1_d_16_70" x="-3.13599" y="-3.15405" width="35.2573" height="35.2573" filterUnits="userSpaceOnUse" color-interpolation-filters="sRGB">
<feFlood flood-opacity="0" result="BackgroundImageFix"/>
<feColorMatrix in="SourceAlpha" type="matrix" values="0 0 0 0 0 0 0 0 0 0 0 0 0 0 0 0 0 0 127 0" result="hardAlpha"/>
<feOffset/>
<feGaussianBlur stdDeviation="7"/>
<feColorMatrix type="matrix" values="0 0 0 0 0 0 0 0 0 0 0 0 0 0 0 0 0 0 0.04 0"/>
<feBlend mode="normal" in2="BackgroundImageFix" result="effect1_dropShadow_16_70"/>
<feBlend mode="normal" in="SourceGraphic" in2="effect1_dropShadow_16_70" result="shape"/>
</filter>
<clipPath id="clip0_16_70">
<rect width="29" height="29" fill="white"/>
</clipPath>
</defs>
</svg>
