<svg width="111" height="97" fill="none" xmlns="http://www.w3.org/2000/svg"><g filter="url(#prefix__filter0_d_16_69)"><path fill-rule="evenodd" clip-rule="evenodd" d="M55.195 57.807h2s.6-.1.9-.4c.3-.3.3-.9.3-.9s0-2.6 1.201-3c1.2-.4 2.8 2.6 4.4 3.7 1.2.9 2.1.7 2.1.7l4.401-.1s2.3-.1 1.2-2c-.1-.1-.6-1.3-3.3-3.8-2.8-2.601-2.4-2.101.9-6.602 2-2.7 2.8-4.3 2.6-5.1-.2-.7-1.7-.5-1.7-.5h-5s-.4-.1-.6.1c-.3.2-.4.5-.4.5s-.8 2.1-1.8 3.9c-2.201 3.7-3.101 3.9-3.401 3.7-.8-.5-.6-2.2-.6-3.3 0-3.6.6-5.1-1.1-5.5-.5-.1-.9-.2-2.3-.2-1.8 0-3.301 0-4.101.4-.6.3-1 .9-.7.9.3 0 1.1.2 1.5.7.4.9.4 2.4.4 2.4s.3 4.3-.7 4.8c-.7.4-1.6-.4-3.6-3.8-1-1.7-1.8-3.7-1.8-3.7s-.1-.4-.4-.6c-.3-.2-.8-.3-.8-.3h-4.701s-.7 0-1 .3c-.2.3 0 .8 0 .8s3.7 8.6 7.9 13.001c3.9 4.2 8.201 3.9 8.201 3.9z" fill="#FF0C0C" fill-opacity=".78"/></g><defs><filter id="prefix__filter0_d_16_69" x="0" y="0" width="111" height="96.93" filterUnits="userSpaceOnUse" color-interpolation-filters="sRGB"><feFlood flood-opacity="0" result="BackgroundImageFix"/><feColorMatrix in="SourceAlpha" values="0 0 0 0 0 0 0 0 0 0 0 0 0 0 0 0 0 0 127 0" result="hardAlpha"/><feOffset/><feGaussianBlur stdDeviation="19.5"/><feColorMatrix values="0 0 0 0 1 0 0 0 0 0.0458333 0 0 0 0 0.0458333 0 0 0 0.78 0"/><feBlend in2="BackgroundImageFix" result="effect1_dropShadow_16_69"/><feBlend in="SourceGraphic" in2="effect1_dropShadow_16_69" result="shape"/></filter></defs></svg>